<svg xmlns="http://www.w3.org/2000/svg" width="430" height="430" style="width:100%;height:100%;transform:translate3d(0,0,0);content-visibility:visible" viewBox="0 0 430 430"><defs><clipPath id="g"><path d="M0 0h430v430H0z"/></clipPath><clipPath id="k"><path d="M0 0h430v430H0z"/></clipPath><clipPath id="d"><path d="M0 0h430v430H0z"/></clipPath><clipPath id="h"><path d="M0 0h430v430H0z"/></clipPath><clipPath id="f"><path d="M0 0h430v430H0z"/></clipPath><filter id="l" width="300%" height="300%" x="-100%" y="-100%"><feGaussianBlur result="filter_result_0"/></filter><filter id="j" width="300%" height="300%" x="-100%" y="-100%"><feGaussianBlur result="filter_result_0" stdDeviation="52.5 52.5"/></filter><mask id="m" mask-type="alpha"><use xmlns:ns1="http://www.w3.org/1999/xlink" ns1:href="#a"/></mask><mask id="i" mask-type="alpha"><use xmlns:ns2="http://www.w3.org/1999/xlink" ns2:href="#b"/></mask><g id="a" fill-opacity="0" stroke-linecap="round" stroke-linejoin="round" clip-path="url(#d)" style="display:none"><path class="primary" style="display:none"/><g style="display:none"><path class="secondary"/><path class="secondary"/><path class="secondary"/></g><path class="secondary" style="display:none"/><path class="secondary" style="display:none"/><path class="secondary" style="display:none"/><path class="secondary" style="display:none"/></g><g id="b" fill-opacity="0" stroke-linecap="round" stroke-linejoin="round" clip-path="url(#f)" style="display:block"><g style="display:block"><path stroke="#121331" stroke-width="12.04" d="M363.119 325.437H66.881c-6.6 0-12-5.4-12-12v-58.782c0-6.6 5.4-12 12-12h296.238c6.6 0 12 5.4 12 12v58.782c0 6.6-5.4 12-12 12M134.94 242.655l-53.373-98.714m213.493 98.714 53.373-98.714M134.941 325.437v31.997m160.119-31.997v31.997" class="primary"/><path stroke="#08A88A" stroke-width="15.54" d="M248.002 284.046h.171m39.745 0h.171m39.745 0h.171" class="secondary"/></g><path stroke="#08A88A" stroke-width="12.04" d="M-5.583-7.685A9.46 9.46 0 0 1 0-9.5q0 0 0 0c2.086 0 4.015.674 5.583 1.815m-38.788-38.02A56.22 56.22 0 0 1 0-56.5q0 0 0 0a56.22 56.22 0 0 1 33.205 10.795m-94.031-38.02C-43.746-96.161-22.723-103.5 0-103.5q0 0 0 0c22.723 0 43.746 7.339 60.826 19.775M-88.741-122.15C-63.823-140.292-33.152-151 0-151q0 0 0 0c33.152 0 63.823 10.708 88.741 28.85" class="secondary" style="display:block" transform="translate(214.5 214.5)"/><path class="secondary" style="display:none"/><path class="secondary" style="display:none"/><path class="secondary" style="display:none"/><path class="secondary" style="display:none"/></g></defs><g clip-path="url(#g)"><g clip-path="url(#h)" mask="url(#i)" style="display:block"><g filter="url(#j)" transform="rotate(-94 238.762 -16.565)scale(2.4)"><g class="design"><path fill="#4BE1EC" d="M0-250c137.975 0 250 112.025 250 250S137.975 250 0 250-250 137.975-250 0-137.975-250 0-250" class="primary"/></g><g class="design"><path fill="#CB5EEE" d="M113.242-295.384c97.478 0 176.5 79.022 176.5 176.5s-79.022 176.5-176.5 176.5c-43.948 0-74.396-34.057-105.29-60.631-37.631-32.369-71.21-62.338-71.21-115.869 0-97.478 79.022-176.5 176.5-176.5" class="secondary"/></g></g></g><g clip-path="url(#k)" filter="url(#l)" mask="url(#m)" style="display:none"><g class="design"><path class="primary"/></g><g class="design"><path class="secondary"/></g></g></g></svg>